<svg version="1.2" xmlns="http://www.w3.org/2000/svg" viewBox="0 0 50 40" width="60" height="48">
	<title>free-svg</title>
	<style>
		.s0 { fill: #ec6e62 } 
		.s1 { fill: #656766 } 
		.s2 { fill: #ffffff } 
	</style>
	<g id="Layer">
		<g id="Layer">
			<path id="Layer" fill-rule="evenodd" class="s0" d="m44.7 13.1l-5.2 8.9c-0.4 0.6-1.1 1-1.8 1h-35c-0.9 0-1.7-0.7-1.7-1.7v-18.5c0-0.9 0.8-1.7 1.7-1.7h35c0.7 0 1.4 0.4 1.8 1l5.2 8.9c0.4 0.7 0.4 1.5 0 2.1zm-4.1-1c0-1.1-0.9-2-2-2-1.1 0-2 0.9-2 2 0 1.1 0.9 2 2 2 1.1 0 2-0.9 2-2z"/>
		</g>
		<g id="Layer">
			<path id="Layer" class="s1" d="m28.9 38.9c-0.3 0-0.7 0-1-0.1-1.3-0.2-2.5-0.8-3.3-1.8-1.3-1.6-1.7-4.2-1-6.5 0.7-1.9 2.1-3.6 4-4.5 1.4-0.7 3.1-1.1 5.2-1.1q1.2 0 2.4 0c0.9 0 1.7 0.1 2.5 0 2.1-0.1 4.1-0.5 6.1-1.2 0.9-0.4 2-0.8 2.6-1.8 0.8-1.2 0.9-3.1 0.2-4.7-0.6-1.4-1.7-2.5-3.2-3.2-1.4-0.6-3-0.8-4.5-0.9-0.5 0-1-0.5-0.9-1 0-0.5 0.5-1 1-0.9 1.7 0.1 3.5 0.3 5.2 1 1.9 0.9 3.4 2.4 4.2 4.2 0.9 2.2 0.8 4.8-0.4 6.6-0.9 1.4-2.4 2.1-3.5 2.5-2.2 0.8-4.4 1.3-6.7 1.3q-1.3 0-2.7 0c-0.8 0-1.5-0.1-2.3 0-1.8 0-3.2 0.3-4.4 0.9-1.4 0.7-2.5 2-3 3.4-0.5 1.6-0.3 3.5 0.6 4.6 0.6 0.8 1.5 1 2.1 1.1 1.9 0.3 3.9-0.7 5.2-2.5 0.3-0.4 0.9-0.6 1.4-0.3 0.5 0.3 0.6 0.9 0.3 1.4-1.5 2.2-3.8 3.5-6.1 3.5z"/>
		</g>
		<g id="Layer">
			<path id="Layer" class="s2" d="m7.8 9.6v1.9h3.2v1.1h-3.2v2.9h-1.2v-7.1h4.7v1.1h-3.5z"/>
			<path id="Layer" fill-rule="evenodd" class="s2" d="m18.4 10.8c0 1.2-0.5 1.9-1.5 2.2l1.9 2.6h-1.5l-1.7-2.4h-1.6v2.4h-1.2v-7.1h2.6c1.1 0 1.9 0.2 2.3 0.5 0.5 0.4 0.7 1 0.7 1.8zm-1.6 1c0.2-0.2 0.4-0.5 0.4-1 0-0.5-0.1-0.8-0.4-1-0.3-0.2-0.7-0.3-1.3-0.3h-1.5v2.5h1.5c0.6 0.1 1.1 0 1.3-0.2z"/>
			<path id="Layer" class="s2" d="m25.1 8.5v1.1h-3.8v1.9h3.4v1.1h-3.4v1.9h3.9v1.1h-5.1v-7.1z"/>
			<path id="Layer" class="s2" d="m31.8 8.5v1.1h-3.8v1.9h3.4v1.1h-3.4v1.9h3.9v1.1h-5.1v-7.1z"/>
		</g>
	</g>
</svg>